<?xml version="1.0" encoding="utf-8"?>
<!-- Generator: Adobe Illustrator 16.0.0, SVG Export Plug-In . SVG Version: 6.00 Build 0)  -->
<!DOCTYPE svg PUBLIC "-//W3C//DTD SVG 1.1//EN" "http://www.w3.org/Graphics/SVG/1.1/DTD/svg11.dtd">
<svg version="1.1" id="Capa_1" xmlns="http://www.w3.org/2000/svg" xmlns:xlink="http://www.w3.org/1999/xlink" x="0px" y="0px"
	 width="520px" height="76.471px" viewBox="0 0 520 76.471" enable-background="new 0 0 520 76.471" xml:space="preserve">
<g>
	<path d="M77.263,51.534l7.796-1.967c0.729,5.975,5.027,9.617,11.293,9.617c5.61,0,9.253-2.914,9.253-7.432
		c0-3.935-2.769-6.339-10.784-9.472c-10.492-4.007-14.208-7.796-14.208-14.5c0-8.233,6.12-13.625,15.301-13.625
		c6.703,0,12.022,2.987,15.155,8.67l-6.484,4.007c-1.895-3.643-5.173-5.756-8.889-5.756c-4.226,0-7.286,2.842-7.286,6.339
		c0,3.425,2.769,5.61,10.492,8.598c11.075,4.226,14.499,8.087,14.499,15.083c0,9.107-6.995,15.082-17.195,15.082
		C86.297,66.179,78.72,60.278,77.263,51.534z"/>
	<path d="M150.995,50.004h-25.21c0.292,5.756,3.716,9.472,9.836,9.472c3.497,0,6.484-1.021,9.18-4.08l5.246,4.517
		c-4.08,4.445-8.598,6.339-14.499,6.339c-11.876,0-17.268-8.597-17.268-18.434c0-9.617,5.246-18.798,16.685-18.798
		c11.147,0,16.248,8.306,16.248,17.705C151.213,47.818,151.141,48.911,150.995,50.004z M144,44.248v-0.437
		c-0.146-5.101-3.716-8.525-9.035-8.525c-5.902,0-8.816,4.444-9.181,8.962H144z"/>
	<path d="M187.787,43.009v22.587h-6.849l-0.583-5.101c-2.332,3.644-6.485,5.756-11.585,5.756c-7.65,0-12.75-4.59-12.75-11.438
		c0-4.08,1.749-7.141,4.955-8.743c2.477-1.239,5.829-1.822,10.929-1.822h8.379v-1.239c0-4.663-2.842-7.432-7.578-7.432
		c-3.935,0-7.432,1.895-10.128,5.61l-5.464-4.59c4.153-5.1,9.253-7.578,15.665-7.578C182.104,29.02,187.787,34.266,187.787,43.009z
		 M180.282,50.15v-0.146h-7.505c-4.153,0-6.266,0.364-7.65,1.457c-1.093,0.729-1.603,1.967-1.603,3.497
		c0,3.061,2.55,4.954,6.63,4.954C175.983,59.913,180.282,55.833,180.282,50.15z"/>
	<path d="M194.196,56.416l6.048-2.695c1.093,2.987,3.497,6.192,8.597,6.192c4.299,0,6.558-2.331,6.558-4.881
		c0-7.214-19.235-2.551-19.235-15.666c0-6.703,5.829-10.346,12.896-10.346c6.047,0,10.71,2.696,13.333,7.65l-5.829,3.206
		c-1.385-2.55-3.643-4.809-7.796-4.809c-3.352,0-5.464,1.53-5.464,3.716c0,6.484,19.454,2.55,19.454,15.811
		c0,8.015-6.776,11.657-13.625,11.657C201.701,66.251,195.945,62.026,194.196,56.416z"/>
	<path d="M230.77,14.813h8.015v7.869h-8.015V14.813z M231.061,29.676h7.504v35.92h-7.504V29.676z"/>
	<path d="M280.75,14.813v50.784h-7.505v-4.008c-2.478,3.206-6.557,4.663-10.856,4.663c-9.982,0-15.374-7.868-15.374-18.652
		c0-11.584,6.193-18.652,15.374-18.652c4.445,0,8.597,1.821,10.856,4.736V14.813H280.75z M273.974,47.672
		c0-6.849-3.278-11.949-9.836-11.949c-6.339,0-9.618,4.59-9.618,11.949c0,7.141,3.133,11.73,9.545,11.73
		C270.841,59.403,273.974,54.375,273.974,47.672z"/>
	<path d="M321.768,50.004h-25.21c0.291,5.756,3.716,9.472,9.836,9.472c3.497,0,6.484-1.021,9.181-4.08l5.246,4.517
		c-4.08,4.445-8.598,6.339-14.5,6.339c-11.876,0-17.268-8.597-17.268-18.434c0-9.617,5.246-18.798,16.685-18.798
		c11.148,0,16.248,8.306,16.248,17.705C321.986,47.818,321.914,48.911,321.768,50.004z M314.773,44.248v-0.437
		c-0.146-5.101-3.716-8.525-9.035-8.525c-5.901,0-8.815,4.444-9.18,8.962H314.773z"/>
	<path d="M328.104,52.044l5.173-1.239c0.947,6.558,5.901,10.638,12.751,10.638c6.63,0,11.074-3.788,11.074-9.398
		c0-4.736-3.133-7.578-12.095-11.002c-10.273-3.861-13.844-7.504-13.844-13.771c0-7.942,5.829-13.042,14.427-13.042
		c6.412,0,11.439,2.841,14.499,8.233l-4.371,2.696c-2.186-3.935-5.902-6.266-10.273-6.266c-5.319,0-9.107,3.643-9.107,8.16
		c0,4.299,3.497,6.776,11.512,9.836c11.293,4.299,14.499,8.379,14.499,14.718c0,9.107-6.63,14.499-16.394,14.499
		C336.556,66.106,329.488,60.569,328.104,52.044z"/>
	<path d="M369.266,47.746c0-9.472,5.319-18.653,16.176-18.653c6.411,0,11.73,3.206,14.572,9.909l-4.81,1.895
		c-1.676-4.59-5.245-7.359-9.763-7.359c-7.65,0-11.075,6.849-11.075,14.208c0,7.358,3.425,13.989,11.147,13.989
		c4.518,0,8.088-2.696,9.473-7.286l4.663,1.748c-2.405,6.558-7.65,9.982-14.136,9.982C375.095,66.179,369.266,57.727,369.266,47.746
		z"/>
	<path d="M435.641,43.228v22.368h-4.59l-0.292-5.537c-2.841,4.007-7.213,6.12-12.896,6.12c-7.796,0-12.386-4.08-12.386-11.002
		c0-3.644,1.457-6.412,4.153-8.088c2.695-1.53,6.557-2.186,13.624-2.186h7.359v-1.676c0-6.266-3.278-9.69-9.326-9.69
		c-4.518,0-8.015,1.967-10.929,5.975l-3.644-3.061c3.861-5.027,8.524-7.359,14.646-7.359
		C430.395,29.093,435.641,34.266,435.641,43.228z M430.614,49.494v-0.51h-6.922c-6.63,0-9.472,0.438-11.221,1.821
		c-1.312,1.021-1.967,2.623-1.967,4.663c0,4.008,3.424,6.558,8.816,6.558C426.242,62.026,430.614,57.144,430.614,49.494z"/>
	<path d="M476.513,43.592v22.004h-5.027V44.831c0-7.723-2.478-11.293-7.869-11.293c-6.776,0-10.71,5.829-10.71,15.956v16.103h-5.028
		v-35.92h5.028v5.246c2.331-3.643,6.703-5.829,11.876-5.829C472.505,29.093,476.513,34.047,476.513,43.592z"/>
	<path d="M485.035,56.78l4.226-1.895c1.312,3.717,4.81,6.85,10.42,6.85c4.881,0,8.015-2.404,8.015-6.193
		c0-9.545-20.692-3.57-20.692-16.321c0-6.266,5.1-10.128,12.313-10.128c5.756,0,10.419,2.405,12.896,7.505l-4.007,2.186
		c-1.749-3.206-4.59-5.246-9.035-5.246c-4.444,0-7.286,1.821-7.286,4.955c0,8.525,20.766,3.133,20.766,16.757
		c0,7.286-5.975,10.93-12.896,10.93C492.685,66.179,486.929,62.536,485.035,56.78z"/>
</g>
<g>
	<path fill="#1DB19D" d="M9.362,28.297c3.756,1.575,8.299,4.24,10.541,6.3l-2.423,3.271c-2.12-2.12-6.603-4.846-10.359-6.603
		L9.362,28.297z M8.635,64.28c2.847-4.785,6.845-12.964,9.692-19.869l3.21,2.302c-2.605,6.481-6.179,14.054-8.784,18.658
		c0.242,0.363,0.363,0.666,0.363,0.969c0,0.242-0.061,0.424-0.182,0.605L8.635,64.28z M20.327,21.815
		c-2.12-2.181-6.542-5.209-10.238-7.087l2.363-2.908c3.695,1.757,8.178,4.543,10.358,6.785L20.327,21.815z M63.518,45.258h-5.391
		c-0.182,3.938-0.364,7.209-0.606,9.813h5.634v3.635h-5.997c-1.09,8.481-3.15,8.724-8.966,8.724c-1.454,0-3.15,0-4.785-0.121
		c-0.122-1.03-0.485-2.605-1.091-3.514c3.332,0.242,6.3,0.242,7.693,0.242c1.999,0,2.666-1.575,3.211-5.331h-23.02l-0.485,3.029
		l-3.877-0.364c0.727-4.24,1.575-10.056,2.363-16.113h-6.3v-3.756h6.724c0.545-4.482,1.03-8.965,1.333-12.842h26.654l2.181,0.121
		c-0.061,0.364-0.061,0.909-0.121,1.272l-0.363,11.449h5.209V45.258z M63.155,22.724H32.079c-1.999,4.483-4.362,8.542-6.906,11.51
		c-0.727-0.667-2.181-1.817-3.089-2.423c4.119-4.664,7.754-12.721,9.935-20.657l4.967,1.333c-0.121,0.424-0.545,0.666-1.333,0.666
		c-0.606,1.938-1.272,3.877-1.999,5.815h29.501V22.724z M40.014,55.072c0.303-2.847,0.606-6.239,0.969-9.813h-9.026
		c-0.424,3.453-0.848,6.785-1.272,9.813H40.014z M41.286,41.502c0.243-3.15,0.424-6.3,0.606-9.208h-8.481
		c-0.303,2.968-0.666,6.058-1.03,9.208H41.286z M44.497,45.258c-0.303,3.574-0.606,7.027-0.909,9.813h10.116
		c0.242-2.544,0.424-5.755,0.606-9.813H44.497z M45.466,32.295c-0.243,2.908-0.424,6.058-0.667,9.208h9.692
		c0.121-2.726,0.182-5.815,0.303-9.208H45.466z"/>
</g>
</svg>
